# MagicaVoxel @ Ephtracy

# group
o 

# material
mtllib potwor4skrzydlo.mtl
usemtl palette

# normals
vn -1 0 0
vn 1 0 0
vn 0 0 1
vn 0 0 -1
vn 0 -1 0
vn 0 1 0

# texcoords
vt 0.939453 0.5
vt 0.943359 0.5

# verts
v 2.4 3.9 -1.3
v 2.4 3.9 -1.4
v 2.4 4 -1.3
v 2.4 4 -1.4
v 2.5 3.9 -1.2
v 2.5 3.9 -1.3
v 2.5 3.9 -1.4
v 2.5 3.9 -1.8
v 2.5 4 -1.2
v 2.5 4 -1.3
v 2.5 4 -1.4
v 2.5 4 -1.8
v 2.6 3.9 -1.8
v 2.6 3.9 -1.9
v 2.6 4 -1.8
v 2.6 4 -1.9
v 2.7 3.8 -1.9
v 2.7 3.8 -2
v 2.7 3.9 -1.9
v 2.7 3.9 -2
v 2.8 3.8 -2
v 2.8 3.8 -2.1
v 2.8 3.9 -2
v 2.8 3.9 -2.1
v 2.9 3.7 -2.1
v 2.9 3.7 -2.3
v 2.9 3.8 -1.8
v 2.9 3.8 -1.9
v 2.9 3.8 -2.1
v 2.9 3.8 -2.2
v 2.9 3.8 -2.3
v 2.9 3.9 -1.8
v 2.9 3.9 -1.9
v 2.9 3.9 -2.1
v 2.9 3.9 -2.2
v 3 3.8 -1.4
v 3 3.8 -1.6
v 3 3.8 -1.7
v 3 3.8 -1.8
v 3 3.9 -1.4
v 3 3.9 -1.5
v 3 3.9 -1.6
v 3 3.9 -1.7
v 3 3.9 -1.8
v 3.2 3.7 -2
v 3.2 3.7 -2.1
v 3.2 3.8 -2
v 3.2 3.8 -2.1
v 3.3 3.7 -1.5
v 3.3 3.7 -2
v 3.3 3.8 -1.5
v 3.3 3.8 -1.6
v 3.3 3.8 -1.8
v 3.3 3.8 -2
v 2.7 3.9 -1.2
v 2.7 3.9 -1.3
v 2.7 4 -1.2
v 2.7 4 -1.3
v 2.9 3.9 -1.8
v 2.9 3.9 -1.9
v 2.9 4 -1.8
v 2.9 4 -1.9
v 3 3.9 -1.3
v 3 3.9 -1.4
v 3 3.9 -1.7
v 3 3.9 -1.8
v 3 4 -1.3
v 3 4 -1.4
v 3 4 -1.7
v 3 4 -1.8
v 3.1 3.9 -1.4
v 3.1 3.9 -1.5
v 3.1 3.9 -1.6
v 3.1 3.9 -1.7
v 3.1 4 -1.4
v 3.1 4 -1.5
v 3.1 4 -1.7
v 3.2 3.8 -2.1
v 3.2 3.8 -2.2
v 3.2 3.9 -2.1
v 3.2 3.9 -2.2
v 3.3 3.7 -2.2
v 3.3 3.7 -2.3
v 3.3 3.8 -1.4
v 3.3 3.8 -1.5
v 3.3 3.8 -2
v 3.3 3.8 -2.1
v 3.3 3.8 -2.2
v 3.3 3.8 -2.3
v 3.3 3.9 -1.4
v 3.3 3.9 -1.5
v 3.3 3.9 -2
v 3.3 3.9 -2.1
v 3.4 3.7 -2.1
v 3.4 3.7 -2.2
v 3.4 3.8 -1.5
v 3.4 3.8 -1.6
v 3.4 3.8 -1.7
v 3.4 3.8 -1.8
v 3.4 3.8 -1.9
v 3.4 3.8 -2
v 3.4 3.8 -2.1
v 3.4 3.8 -2.2
v 3.4 3.9 -1.5
v 3.4 3.9 -1.6
v 3.4 3.9 -1.7
v 3.4 3.9 -1.9
v 3.4 3.9 -2
v 3.5 3.7 -1.5
v 3.5 3.7 -1.6
v 3.5 3.7 -2
v 3.5 3.7 -2.1
v 3.5 3.8 -1.5
v 3.5 3.8 -1.6
v 3.5 3.8 -2
v 3.5 3.8 -2.1
v 3.6 3.7 -1.6
v 3.6 3.7 -2
v 3.6 3.8 -1.6
v 3.6 3.8 -2
v 2.5 3.9 -1.2
v 2.5 4 -1.2
v 2.7 3.9 -1.2
v 2.7 4 -1.2
v 2.4 3.9 -1.3
v 2.4 4 -1.3
v 2.5 3.9 -1.3
v 2.5 4 -1.3
v 2.7 3.9 -1.3
v 2.7 4 -1.3
v 3 3.9 -1.3
v 3 4 -1.3
v 3 3.8 -1.4
v 3 3.9 -1.4
v 3 4 -1.4
v 3.1 3.9 -1.4
v 3.1 4 -1.4
v 3.3 3.8 -1.4
v 3.3 3.9 -1.4
v 3.3 3.7 -1.5
v 3.3 3.8 -1.5
v 3.3 3.9 -1.5
v 3.4 3.8 -1.5
v 3.4 3.9 -1.5
v 3.5 3.7 -1.5
v 3.5 3.8 -1.5
v 3.5 3.7 -1.6
v 3.5 3.8 -1.6
v 3.6 3.7 -1.6
v 3.6 3.8 -1.6
v 2.9 3.8 -1.8
v 2.9 3.9 -1.8
v 3 3.8 -1.8
v 3 3.9 -1.8
v 2.7 3.8 -1.9
v 2.7 3.9 -1.9
v 2.8 3.8 -1.9
v 2.8 3.9 -1.9
v 2.9 3.8 -1.9
v 2.9 3.9 -1.9
v 3.2 3.7 -2
v 3.2 3.8 -2
v 3.3 3.7 -2
v 3.3 3.8 -2
v 2.9 3.7 -2.1
v 2.9 3.8 -2.1
v 3 3.8 -2.1
v 3.2 3.7 -2.1
v 3.2 3.8 -2.1
v 2.4 3.9 -1.4
v 2.4 4 -1.4
v 2.5 3.9 -1.4
v 2.5 4 -1.4
v 3 3.9 -1.7
v 3 4 -1.7
v 3.1 3.9 -1.7
v 3.1 4 -1.7
v 2.5 3.9 -1.8
v 2.5 4 -1.8
v 2.6 3.9 -1.8
v 2.6 4 -1.8
v 2.9 3.9 -1.8
v 2.9 4 -1.8
v 3 3.9 -1.8
v 3 4 -1.8
v 2.6 3.9 -1.9
v 2.6 4 -1.9
v 2.7 3.9 -1.9
v 2.8 3.9 -1.9
v 2.9 3.9 -1.9
v 2.9 4 -1.9
v 2.7 3.8 -2
v 2.7 3.9 -2
v 2.8 3.8 -2
v 2.8 3.9 -2
v 3.3 3.8 -2
v 3.3 3.9 -2
v 3.4 3.8 -2
v 3.4 3.9 -2
v 3.5 3.7 -2
v 3.5 3.8 -2
v 3.6 3.7 -2
v 3.6 3.8 -2
v 2.8 3.8 -2.1
v 2.8 3.9 -2.1
v 2.9 3.8 -2.1
v 2.9 3.9 -2.1
v 3.2 3.8 -2.1
v 3.2 3.9 -2.1
v 3.3 3.8 -2.1
v 3.3 3.9 -2.1
v 3.4 3.7 -2.1
v 3.4 3.8 -2.1
v 3.5 3.7 -2.1
v 3.5 3.8 -2.1
v 2.9 3.8 -2.2
v 2.9 3.9 -2.2
v 3 3.8 -2.2
v 3 3.9 -2.2
v 3.2 3.8 -2.2
v 3.2 3.9 -2.2
v 3.3 3.7 -2.2
v 3.3 3.8 -2.2
v 3.4 3.7 -2.2
v 3.4 3.8 -2.2
v 2.9 3.7 -2.3
v 2.9 3.8 -2.3
v 3.3 3.7 -2.3
v 3.3 3.8 -2.3
v 3.3 3.7 -1.5
v 3.5 3.7 -1.5
v 3.4 3.7 -1.6
v 3.5 3.7 -1.6
v 3.6 3.7 -1.6
v 3.4 3.7 -1.8
v 3.5 3.7 -1.8
v 3.4 3.7 -1.9
v 3.5 3.7 -1.9
v 3.2 3.7 -2
v 3.3 3.7 -2
v 3.4 3.7 -2
v 3.5 3.7 -2
v 3.6 3.7 -2
v 2.9 3.7 -2.1
v 3.2 3.7 -2.1
v 3.3 3.7 -2.1
v 3.4 3.7 -2.1
v 3.5 3.7 -2.1
v 3.3 3.7 -2.2
v 3.4 3.7 -2.2
v 2.9 3.7 -2.3
v 3.3 3.7 -2.3
v 3 3.8 -1.4
v 3.3 3.8 -1.4
v 3.2 3.8 -1.5
v 3.3 3.8 -1.5
v 3 3.8 -1.6
v 3.2 3.8 -1.6
v 3.3 3.8 -1.6
v 3 3.8 -1.7
v 3.2 3.8 -1.7
v 2.9 3.8 -1.8
v 3 3.8 -1.8
v 3.1 3.8 -1.8
v 3.3 3.8 -1.8
v 2.7 3.8 -1.9
v 2.8 3.8 -1.9
v 2.9 3.8 -1.9
v 3 3.8 -1.9
v 3.1 3.8 -1.9
v 2.7 3.8 -2
v 2.8 3.8 -2
v 2.9 3.8 -2
v 3 3.8 -2
v 3.2 3.8 -2
v 3.3 3.8 -2
v 2.8 3.8 -2.1
v 2.9 3.8 -2.1
v 3 3.8 -2.1
v 3.2 3.8 -2.1
v 2.5 3.9 -1.2
v 2.7 3.9 -1.2
v 2.4 3.9 -1.3
v 2.5 3.9 -1.3
v 2.7 3.9 -1.3
v 3 3.9 -1.3
v 2.4 3.9 -1.4
v 2.5 3.9 -1.4
v 2.6 3.9 -1.4
v 2.7 3.9 -1.4
v 2.8 3.9 -1.4
v 3 3.9 -1.4
v 2.9 3.9 -1.5
v 3 3.9 -1.5
v 2.7 3.9 -1.6
v 2.8 3.9 -1.6
v 2.9 3.9 -1.6
v 3 3.9 -1.6
v 2.6 3.9 -1.7
v 2.7 3.9 -1.7
v 2.8 3.9 -1.7
v 2.9 3.9 -1.7
v 3 3.9 -1.7
v 2.5 3.9 -1.8
v 2.6 3.9 -1.8
v 2.7 3.9 -1.8
v 2.9 3.9 -1.8
v 3 3.9 -1.8
v 2.6 3.9 -1.9
v 2.7 3.9 -1.9
v 2.8 3.9 -1.9
v 2.9 3.9 -1.9
v 3.4 3.8 -1.5
v 3.5 3.8 -1.5
v 3.4 3.8 -1.6
v 3.5 3.8 -1.6
v 3.6 3.8 -1.6
v 3.4 3.8 -1.7
v 3.4 3.8 -1.8
v 3.5 3.8 -1.8
v 3.4 3.8 -1.9
v 3.5 3.8 -1.9
v 3.3 3.8 -2
v 3.4 3.8 -2
v 3.5 3.8 -2
v 3.6 3.8 -2
v 3.2 3.8 -2.1
v 3.3 3.8 -2.1
v 3.4 3.8 -2.1
v 3.5 3.8 -2.1
v 2.9 3.8 -2.2
v 3 3.8 -2.2
v 3.2 3.8 -2.2
v 3.3 3.8 -2.2
v 3.4 3.8 -2.2
v 2.9 3.8 -2.3
v 3.3 3.8 -2.3
v 3.1 3.9 -1.4
v 3.3 3.9 -1.4
v 3.1 3.9 -1.5
v 3.2 3.9 -1.5
v 3.3 3.9 -1.5
v 3.4 3.9 -1.5
v 3.1 3.9 -1.6
v 3.2 3.9 -1.6
v 3.3 3.9 -1.6
v 3.4 3.9 -1.6
v 3 3.9 -1.7
v 3.1 3.9 -1.7
v 3.2 3.9 -1.7
v 3.3 3.9 -1.7
v 3.4 3.9 -1.7
v 2.9 3.9 -1.8
v 3 3.9 -1.8
v 3.1 3.9 -1.8
v 3.3 3.9 -1.8
v 2.7 3.9 -1.9
v 2.8 3.9 -1.9
v 2.9 3.9 -1.9
v 3 3.9 -1.9
v 3.1 3.9 -1.9
v 3.3 3.9 -1.9
v 3.4 3.9 -1.9
v 2.7 3.9 -2
v 2.8 3.9 -2
v 2.9 3.9 -2
v 3 3.9 -2
v 3.3 3.9 -2
v 3.4 3.9 -2
v 2.8 3.9 -2.1
v 2.9 3.9 -2.1
v 3 3.9 -2.1
v 3.2 3.9 -2.1
v 3.3 3.9 -2.1
v 2.9 3.9 -2.2
v 3 3.9 -2.2
v 3.2 3.9 -2.2
v 2.5 4 -1.2
v 2.7 4 -1.2
v 2.4 4 -1.3
v 2.5 4 -1.3
v 2.7 4 -1.3
v 3 4 -1.3
v 2.4 4 -1.4
v 2.5 4 -1.4
v 2.6 4 -1.4
v 2.7 4 -1.4
v 2.8 4 -1.4
v 3 4 -1.4
v 3.1 4 -1.4
v 2.9 4 -1.5
v 3.1 4 -1.5
v 2.7 4 -1.6
v 2.8 4 -1.6
v 2.9 4 -1.6
v 3 4 -1.6
v 2.6 4 -1.7
v 2.7 4 -1.7
v 2.8 4 -1.7
v 2.9 4 -1.7
v 3 4 -1.7
v 3.1 4 -1.7
v 2.5 4 -1.8
v 2.6 4 -1.8
v 2.7 4 -1.8
v 2.9 4 -1.8
v 3 4 -1.8
v 2.6 4 -1.9
v 2.9 4 -1.9

# faces
f 3/1/1 2/1/1 1/1/1
f 4/1/1 2/1/1 3/1/1
f 9/1/1 6/1/1 5/1/1
f 10/1/1 6/1/1 9/1/1
f 11/1/1 8/1/1 7/1/1
f 12/1/1 8/1/1 11/1/1
f 15/1/1 14/1/1 13/1/1
f 16/1/1 14/1/1 15/1/1
f 19/1/1 18/1/1 17/1/1
f 20/1/1 18/1/1 19/1/1
f 23/1/1 22/1/1 21/1/1
f 24/1/1 22/1/1 23/1/1
f 29/1/1 26/1/1 25/1/1
f 30/1/1 26/1/1 29/1/1
f 31/1/1 26/1/1 30/1/1
f 32/2/1 28/2/1 27/2/1
f 33/2/1 28/2/1 32/2/1
f 34/1/1 30/1/1 29/1/1
f 35/1/1 30/1/1 34/1/1
f 40/1/1 37/1/1 36/1/1
f 41/1/1 37/1/1 40/1/1
f 42/2/1 38/2/1 37/2/1
f 42/1/1 37/1/1 41/1/1
f 43/1/1 39/1/1 38/1/1
f 43/2/1 38/2/1 42/2/1
f 44/1/1 39/1/1 43/1/1
f 47/1/1 46/1/1 45/1/1
f 48/1/1 46/1/1 47/1/1
f 51/1/1 50/1/1 49/1/1
f 52/1/1 50/1/1 51/1/1
f 53/1/1 50/1/1 52/1/1
f 54/1/1 50/1/1 53/1/1
f 55/1/2 56/1/2 57/1/2
f 57/1/2 56/1/2 58/1/2
f 59/1/2 60/1/2 61/1/2
f 61/1/2 60/1/2 62/1/2
f 63/1/2 64/1/2 67/1/2
f 67/1/2 64/1/2 68/1/2
f 65/2/2 66/2/2 69/2/2
f 69/2/2 66/2/2 70/2/2
f 71/1/2 72/1/2 75/1/2
f 73/2/2 74/2/2 76/2/2
f 75/1/2 72/1/2 76/1/2
f 72/2/2 73/2/2 76/2/2
f 76/2/2 74/2/2 77/2/2
f 78/2/2 79/2/2 80/2/2
f 80/2/2 79/2/2 81/2/2
f 82/1/2 83/1/2 88/1/2
f 88/1/2 83/1/2 89/1/2
f 84/1/2 85/1/2 90/1/2
f 90/1/2 85/1/2 91/1/2
f 86/1/2 87/1/2 92/1/2
f 92/1/2 87/1/2 93/1/2
f 94/1/2 95/1/2 102/1/2
f 102/1/2 95/1/2 103/1/2
f 96/1/2 97/1/2 104/1/2
f 97/2/2 98/2/2 105/2/2
f 104/1/2 97/1/2 105/1/2
f 98/1/2 99/1/2 106/1/2
f 105/2/2 98/2/2 106/2/2
f 99/1/2 100/1/2 106/1/2
f 100/2/2 101/2/2 107/2/2
f 106/1/2 100/1/2 107/1/2
f 107/2/2 101/2/2 108/2/2
f 109/1/2 110/1/2 113/1/2
f 113/1/2 110/1/2 114/1/2
f 111/1/2 112/1/2 115/1/2
f 115/1/2 112/1/2 116/1/2
f 117/1/2 118/1/2 119/1/2
f 119/1/2 118/1/2 120/1/2
f 123/1/3 122/1/3 121/1/3
f 124/1/3 122/1/3 123/1/3
f 127/1/3 126/1/3 125/1/3
f 128/1/3 126/1/3 127/1/3
f 131/1/3 130/1/3 129/1/3
f 132/1/3 130/1/3 131/1/3
f 136/1/3 134/1/3 133/1/3
f 136/1/3 135/1/3 134/1/3
f 137/1/3 135/1/3 136/1/3
f 138/1/3 136/1/3 133/1/3
f 139/1/3 136/1/3 138/1/3
f 143/1/3 141/1/3 140/1/3
f 143/1/3 142/1/3 141/1/3
f 144/1/3 142/1/3 143/1/3
f 145/1/3 143/1/3 140/1/3
f 146/1/3 143/1/3 145/1/3
f 149/1/3 148/1/3 147/1/3
f 150/1/3 148/1/3 149/1/3
f 153/2/3 152/2/3 151/2/3
f 154/2/3 152/2/3 153/2/3
f 157/1/3 156/1/3 155/1/3
f 158/1/3 156/1/3 157/1/3
f 159/2/3 158/2/3 157/2/3
f 160/2/3 158/2/3 159/2/3
f 163/1/3 162/1/3 161/1/3
f 164/1/3 162/1/3 163/1/3
f 167/1/3 166/1/3 165/1/3
f 168/1/3 167/1/3 165/1/3
f 169/1/3 167/1/3 168/1/3
f 170/1/4 171/1/4 172/1/4
f 172/1/4 171/1/4 173/1/4
f 174/2/4 175/2/4 176/2/4
f 176/2/4 175/2/4 177/2/4
f 178/1/4 179/1/4 180/1/4
f 180/1/4 179/1/4 181/1/4
f 182/2/4 183/2/4 184/2/4
f 184/2/4 183/2/4 185/2/4
f 186/1/4 187/1/4 188/1/4
f 188/1/4 187/1/4 189/1/4
f 189/1/4 187/1/4 190/1/4
f 190/1/4 187/1/4 191/1/4
f 192/1/4 193/1/4 194/1/4
f 194/1/4 193/1/4 195/1/4
f 196/2/4 197/2/4 198/2/4
f 198/2/4 197/2/4 199/2/4
f 200/1/4 201/1/4 202/1/4
f 202/1/4 201/1/4 203/1/4
f 204/1/4 205/1/4 206/1/4
f 206/1/4 205/1/4 207/1/4
f 208/1/4 209/1/4 210/1/4
f 210/1/4 209/1/4 211/1/4
f 212/1/4 213/1/4 214/1/4
f 214/1/4 213/1/4 215/1/4
f 216/1/4 217/1/4 218/1/4
f 218/1/4 217/1/4 219/1/4
f 218/2/4 219/2/4 220/2/4
f 220/2/4 219/2/4 221/2/4
f 222/1/4 223/1/4 224/1/4
f 224/1/4 223/1/4 225/1/4
f 226/1/4 227/1/4 228/1/4
f 228/1/4 227/1/4 229/1/4
f 232/1/5 231/1/5 230/1/5
f 233/1/5 231/1/5 232/1/5
f 235/1/5 232/1/5 230/1/5
f 235/2/5 233/2/5 232/2/5
f 236/1/5 234/1/5 233/1/5
f 236/2/5 233/2/5 235/2/5
f 237/1/5 235/1/5 230/1/5
f 237/1/5 236/1/5 235/1/5
f 238/1/5 234/1/5 236/1/5
f 238/1/5 236/1/5 237/1/5
f 240/1/5 237/1/5 230/1/5
f 241/2/5 238/2/5 237/2/5
f 241/1/5 237/1/5 240/1/5
f 242/1/5 234/1/5 238/1/5
f 242/2/5 238/2/5 241/2/5
f 243/1/5 234/1/5 242/1/5
f 245/1/5 240/1/5 239/1/5
f 246/2/5 241/2/5 240/2/5
f 246/1/5 240/1/5 245/1/5
f 247/1/5 242/1/5 241/1/5
f 247/2/5 241/2/5 246/2/5
f 248/1/5 242/1/5 247/1/5
f 249/1/5 245/1/5 244/1/5
f 249/1/5 246/1/5 245/1/5
f 249/1/5 247/1/5 246/1/5
f 250/1/5 247/1/5 249/1/5
f 251/1/5 249/1/5 244/1/5
f 252/1/5 249/1/5 251/1/5
f 255/1/5 254/1/5 253/1/5
f 256/1/5 254/1/5 255/1/5
f 257/1/5 255/1/5 253/1/5
f 258/2/5 256/2/5 255/2/5
f 258/1/5 255/1/5 257/1/5
f 259/2/5 256/2/5 258/2/5
f 260/2/5 258/2/5 257/2/5
f 261/1/5 259/1/5 258/1/5
f 261/2/5 258/2/5 260/2/5
f 263/1/5 261/1/5 260/1/5
f 264/1/5 261/1/5 263/1/5
f 265/1/5 259/1/5 261/1/5
f 265/1/5 261/1/5 264/1/5
f 268/2/5 263/2/5 262/2/5
f 269/1/5 264/1/5 263/1/5
f 269/2/5 263/2/5 268/2/5
f 270/2/5 265/2/5 264/2/5
f 270/1/5 264/1/5 269/1/5
f 271/1/5 267/1/5 266/1/5
f 272/2/5 268/2/5 267/2/5
f 272/1/5 267/1/5 271/1/5
f 273/1/5 269/1/5 268/1/5
f 273/2/5 268/2/5 272/2/5
f 274/2/5 270/2/5 269/2/5
f 274/1/5 269/1/5 273/1/5
f 275/2/5 265/2/5 270/2/5
f 275/2/5 270/2/5 274/2/5
f 276/2/5 265/2/5 275/2/5
f 277/1/5 273/1/5 272/1/5
f 278/2/5 274/2/5 273/2/5
f 278/1/5 273/1/5 277/1/5
f 279/1/5 275/1/5 274/1/5
f 279/2/5 274/2/5 278/2/5
f 280/1/5 275/1/5 279/1/5
f 284/1/5 282/1/5 281/1/5
f 285/1/5 282/1/5 284/1/5
f 287/1/5 284/1/5 283/1/5
f 288/2/5 285/2/5 284/2/5
f 288/1/5 284/1/5 287/1/5
f 289/2/5 285/2/5 288/2/5
f 290/1/5 286/1/5 285/1/5
f 290/2/5 285/2/5 289/2/5
f 291/1/5 286/1/5 290/1/5
f 292/1/5 286/1/5 291/1/5
f 293/1/5 292/1/5 291/1/5
f 294/1/5 292/1/5 293/1/5
f 295/2/5 290/2/5 289/2/5
f 295/2/5 291/2/5 290/2/5
f 296/1/5 293/1/5 291/1/5
f 296/2/5 291/2/5 295/2/5
f 297/2/5 294/2/5 293/2/5
f 297/1/5 293/1/5 296/1/5
f 298/2/5 294/2/5 297/2/5
f 299/1/5 289/1/5 288/1/5
f 299/2/5 295/2/5 289/2/5
f 300/1/5 296/1/5 295/1/5
f 300/2/5 295/2/5 299/2/5
f 301/2/5 297/2/5 296/2/5
f 301/1/5 296/1/5 300/1/5
f 302/1/5 298/1/5 297/1/5
f 302/2/5 297/2/5 301/2/5
f 303/1/5 298/1/5 302/1/5
f 304/1/5 299/1/5 288/1/5
f 304/1/5 300/1/5 299/1/5
f 305/1/5 300/1/5 304/1/5
f 306/2/5 301/2/5 300/2/5
f 306/1/5 300/1/5 305/1/5
f 306/2/5 303/2/5 302/2/5
f 306/2/5 302/2/5 301/2/5
f 307/2/5 303/2/5 306/2/5
f 308/2/5 303/2/5 307/2/5
f 309/1/5 306/1/5 305/1/5
f 309/1/5 307/1/5 306/1/5
f 310/1/5 307/1/5 309/1/5
f 311/1/5 307/1/5 310/1/5
f 312/1/5 307/1/5 311/1/5
f 313/1/6 314/1/6 315/1/6
f 315/1/6 314/1/6 316/1/6
f 315/2/6 316/2/6 318/2/6
f 318/2/6 316/2/6 319/2/6
f 316/1/6 317/1/6 320/1/6
f 319/2/6 316/2/6 320/2/6
f 319/1/6 320/1/6 321/1/6
f 320/1/6 317/1/6 322/1/6
f 321/1/6 320/1/6 322/1/6
f 321/2/6 322/2/6 324/2/6
f 322/1/6 317/1/6 325/1/6
f 324/2/6 322/2/6 325/2/6
f 325/1/6 317/1/6 326/1/6
f 323/2/6 324/2/6 328/2/6
f 324/1/6 325/1/6 329/1/6
f 328/2/6 324/2/6 329/2/6
f 329/1/6 325/1/6 330/1/6
f 327/1/6 328/1/6 333/1/6
f 328/1/6 329/1/6 333/1/6
f 333/1/6 329/1/6 334/1/6
f 334/1/6 329/1/6 335/1/6
f 331/1/6 332/1/6 336/1/6
f 332/1/6 333/1/6 336/1/6
f 333/1/6 334/1/6 336/1/6
f 336/1/6 334/1/6 337/1/6
f 338/1/6 339/1/6 340/1/6
f 340/1/6 339/1/6 341/1/6
f 341/1/6 339/1/6 342/1/6
f 340/1/6 341/1/6 344/1/6
f 341/2/6 342/2/6 345/2/6
f 344/1/6 341/1/6 345/1/6
f 342/1/6 343/1/6 346/1/6
f 345/2/6 342/2/6 346/2/6
f 346/1/6 343/1/6 347/1/6
f 344/2/6 345/2/6 349/2/6
f 345/1/6 346/1/6 350/1/6
f 349/2/6 345/2/6 350/2/6
f 346/2/6 347/2/6 351/2/6
f 350/1/6 346/1/6 351/1/6
f 351/2/6 347/2/6 352/2/6
f 348/1/6 349/1/6 354/1/6
f 349/1/6 350/1/6 354/1/6
f 351/1/6 352/1/6 354/1/6
f 350/1/6 351/1/6 354/1/6
f 354/1/6 352/1/6 355/1/6
f 355/1/6 352/1/6 356/1/6
f 353/2/6 354/2/6 359/2/6
f 354/1/6 355/1/6 360/1/6
f 359/2/6 354/2/6 360/2/6
f 355/2/6 356/2/6 361/2/6
f 360/1/6 355/1/6 361/1/6
f 356/1/6 352/1/6 362/1/6
f 361/2/6 356/2/6 362/2/6
f 362/1/6 352/1/6 363/1/6
f 357/1/6 358/1/6 364/1/6
f 358/2/6 359/2/6 365/2/6
f 364/1/6 358/1/6 365/1/6
f 359/1/6 360/1/6 366/1/6
f 365/2/6 359/2/6 366/2/6
f 360/2/6 361/2/6 367/2/6
f 366/1/6 360/1/6 367/1/6
f 361/2/6 362/2/6 367/2/6
f 362/2/6 363/2/6 367/2/6
f 367/2/6 363/2/6 368/2/6
f 368/2/6 363/2/6 369/2/6
f 365/1/6 366/1/6 370/1/6
f 366/2/6 367/2/6 371/2/6
f 370/1/6 366/1/6 371/1/6
f 367/1/6 368/1/6 372/1/6
f 371/2/6 367/2/6 372/2/6
f 372/1/6 368/1/6 373/1/6
f 373/1/6 368/1/6 374/1/6
f 371/1/6 372/1/6 375/1/6
f 372/2/6 373/2/6 376/2/6
f 375/1/6 372/1/6 376/1/6
f 376/2/6 373/2/6 377/2/6
f 378/1/6 379/1/6 381/1/6
f 381/1/6 379/1/6 382/1/6
f 380/1/6 381/1/6 384/1/6
f 381/2/6 382/2/6 385/2/6
f 384/1/6 381/1/6 385/1/6
f 385/2/6 382/2/6 386/2/6
f 382/1/6 383/1/6 387/1/6
f 386/2/6 382/2/6 387/2/6
f 387/1/6 383/1/6 388/1/6
f 388/1/6 383/1/6 389/1/6
f 389/1/6 390/1/6 391/1/6
f 388/1/6 389/1/6 391/1/6
f 391/1/6 390/1/6 392/1/6
f 387/2/6 388/2/6 393/2/6
f 386/2/6 387/2/6 393/2/6
f 388/1/6 391/1/6 394/1/6
f 393/2/6 388/2/6 394/2/6
f 391/2/6 392/2/6 395/2/6
f 394/1/6 391/1/6 395/1/6
f 395/2/6 392/2/6 396/2/6
f 385/1/6 386/1/6 397/1/6
f 386/2/6 393/2/6 397/2/6
f 393/1/6 394/1/6 398/1/6
f 397/2/6 393/2/6 398/2/6
f 394/2/6 395/2/6 399/2/6
f 398/1/6 394/1/6 399/1/6
f 395/1/6 396/1/6 400/1/6
f 399/2/6 395/2/6 400/2/6
f 396/2/6 392/2/6 401/2/6
f 400/1/6 396/1/6 401/1/6
f 401/2/6 392/2/6 402/2/6
f 385/1/6 397/1/6 403/1/6
f 397/1/6 398/1/6 403/1/6
f 403/1/6 398/1/6 404/1/6
f 399/2/6 400/2/6 405/2/6
f 404/1/6 398/1/6 405/1/6
f 398/2/6 399/2/6 405/2/6
f 400/2/6 401/2/6 405/2/6
f 405/2/6 401/2/6 406/2/6
f 406/2/6 401/2/6 407/2/6
f 404/1/6 405/1/6 408/1/6
f 405/1/6 406/1/6 408/1/6
f 408/1/6 406/1/6 409/1/6
